<?xml version="1.0" encoding="UTF-8"?>
<svg id="Layer_1" data-name="Layer 1" xmlns="http://www.w3.org/2000/svg" viewBox="0 0 671 411">
  <defs>
    <style>
      .cls-1 {
        fill: #fff;
      }
    </style>
  </defs>
  <polygon class="cls-1" points="364.73 100.72 306.91 100.72 364.48 103.79 364.73 100.72"/>
  <polygon class="cls-1" points="402.96 100.47 402.98 103.53 461.22 100.53 402.96 100.47"/>
  <polygon class="cls-1" points="530.06 100.72 472.25 100.72 529.82 103.79 530.06 100.72"/>
  <polygon class="cls-1" points="567.73 100.63 567.76 103.7 626 100.7 567.73 100.63"/>
  <path class="cls-1" d="M472.14,66.49v33.99h57.61v129.35c7.06,3.67,12.22,10.59,13.54,18.75h24.87v-70.84c-6.4-2.09-10.81-8.02-10.81-15s4.41-12.91,10.81-15v-47.25h57.83v-33.99h-153.85Z"/>
  <path class="cls-1" d="M306.82,66.49v33.99h57.61v17.93c3.75,1.24,6.42,4.76,6.42,8.91s-2.66,7.66-6.42,8.91v112.36h38.41v-21c-3.31-1.85-5.65-5.43-5.65-9.54s2.34-7.69,5.65-9.54v-108.02h57.83v-33.99h-153.85Z"/>
  <circle class="cls-1" cx="96.01" cy="35.02" r="8.4"/>
  <path class="cls-1" d="M293.58,87.46v-20.97h-22.81c-3.41,6.18-9.81,9.91-17.14,9.91s-13.72-3.73-17.14-9.91h-23.04v20.97h20.97v140.16h-20.97v20.97h80.12v-20.97h-20.75V87.46h20.76Z"/>
  <circle class="cls-1" cx="315.94" cy="161.23" r="17.79"/>
  <circle class="cls-1" cx="351.89" cy="127.32" r="9.41"/>
  <circle class="cls-1" cx="625.14" cy="175.94" r="6.92"/>
  <circle class="cls-1" cx="487.27" cy="139.18" r="27.67" transform="translate(271.83 597.86) rotate(-80.78)"/>
  <circle class="cls-1" cx="421.06" cy="215.88" r="11.86"/>
  <circle class="cls-1" cx="638.98" cy="131.07" r="11.86"/>
  <circle class="cls-1" cx="502.73" cy="179.56" r="6.56"/>
  <circle class="cls-1" cx="588.79" cy="161.22" r="16.08"/>
  <circle class="cls-1" cx="522.13" cy="248.48" r="16.08"/>
  <circle class="cls-1" cx="43.39" cy="213.59" r="23.23" transform="translate(-11.75 2.73) rotate(-3.17)"/>
  <rect class="cls-1" x="306.82" y="66.72" width="154.28" height="33.99"/>
  <rect class="cls-1" x="471.7" y="66.72" width="154.06" height="33.99"/>
  <rect class="cls-1" x="76.83" y="142.64" width="110.8" height="33.99"/>
  <circle class="cls-1" cx="253.63" cy="38.98" r="19.77"/>
  <rect class="cls-1" x="234.42" y="120.79" width="38.18" height="106.83"/>
  <circle class="cls-1" cx="64.41" cy="61.7" r="18.28"/>
  <circle class="cls-1" cx="125.83" cy="245.17" r="12.69"/>
  <path class="cls-1" d="M94.26,66.94c.48,1.55.63,3.32.63,5.12,0,9.99-7.91,18.05-18.06,18.23v10.42h116.32v-33.77h-98.89Z"/>
  <path class="cls-1" d="M94.14,66.94c.49,1.55.75,3.36.75,5.17,0,10.1-8.2,18.26-18.3,18.26-.21,0-.43-.03-.65-.03v158.04h30.14c-.79-1.55-1.31-3.46-1.31-5.41,0-5.8,3.84-10.66,9.13-12.17V66.95h-19.77,0Z"/>
  <path class="cls-1" d="M28.28,322.72h-5.66v-35.47h19.71v4.9h-14.04v11.09h13.16v4.92h-13.16v14.56h0Z"/>
  <path class="cls-1" d="M66.69,322.72l-.79-3.52h-.29c-.78,1.25-1.89,2.22-3.33,2.94-1.44.71-3.09,1.07-4.93,1.07-3.2,0-5.59-.81-7.17-2.43s-2.36-4.07-2.36-7.35v-17.54h5.66v16.55c0,2.05.41,3.59,1.24,4.62.83,1.03,2.13,1.54,3.89,1.54,2.36,0,4.09-.72,5.2-2.15,1.11-1.43,1.66-3.83,1.66-7.19v-13.37h5.64v26.83h-4.42Z"/>
  <path class="cls-1" d="M102.35,322.72h-5.64v-16.5c0-2.07-.41-3.61-1.23-4.63-.82-1.02-2.12-1.53-3.91-1.53-2.37,0-4.11.71-5.21,2.14-1.1,1.42-1.65,3.81-1.65,7.16v13.37h-5.61v-26.83h4.4l.79,3.52h.29c.8-1.28,1.93-2.26,3.39-2.96,1.46-.7,3.09-1.04,4.87-1.04,6.34,0,9.51,3.28,9.51,9.82v17.49h0Z"/>
  <path class="cls-1" d="M119.07,323.22c-3.3,0-5.87-1.21-7.72-3.64-1.85-2.43-2.77-5.83-2.77-10.21s.94-7.82,2.81-10.27c1.87-2.45,4.46-3.68,7.77-3.68s6.11,1.3,7.93,3.91h.29c-.27-1.92-.41-3.44-.41-4.56v-9.78h5.64v37.75h-4.39l-.98-3.52h-.26c-1.8,2.67-4.44,4-7.91,4h0ZM120.57,318.6c2.31,0,3.99-.66,5.04-1.98,1.05-1.32,1.59-3.46,1.62-6.42v-.8c0-3.38-.54-5.78-1.62-7.2s-2.78-2.14-5.09-2.14c-1.97,0-3.5.81-4.56,2.44-1.07,1.63-1.6,3.94-1.6,6.95s.52,5.24,1.55,6.8c1.04,1.56,2.59,2.34,4.66,2.34h0Z"/>
  <path class="cls-1" d="M157.17,322.72l-1.12-3.74h-.19c-1.27,1.63-2.56,2.75-3.85,3.34-1.29.59-2.95.89-4.97.89-2.6,0-4.62-.71-6.08-2.13s-2.19-3.44-2.19-6.04c0-2.77,1.01-4.85,3.03-6.26s5.1-2.18,9.24-2.3l4.56-.15v-1.43c0-1.71-.39-3-1.18-3.85s-2.01-1.27-3.67-1.27c-1.35,0-2.65.2-3.89.61-1.24.41-2.44.88-3.58,1.43l-1.82-4.08c1.43-.76,3-1.34,4.71-1.73,1.7-.4,3.31-.59,4.82-.59,3.36,0,5.9.74,7.61,2.23,1.71,1.49,2.57,3.83,2.57,7.01v18.07h-4.01,0ZM148.81,318.84c2.04,0,3.67-.58,4.91-1.73,1.23-1.16,1.85-2.78,1.85-4.86v-2.33l-3.39.15c-2.64.1-4.57.55-5.77,1.35-1.2.8-1.8,2.03-1.8,3.68,0,1.2.35,2.12,1.05,2.78.7.65,1.75.98,3.15.98v-.02Z"/>
  <path class="cls-1" d="M178.86,318.6c1.37,0,2.74-.22,4.11-.65v4.29c-.62.28-1.42.5-2.4.69s-1.99.28-3.05.28c-5.32,0-7.98-2.85-7.98-8.54v-14.46h-3.61v-2.52l3.87-2.09,1.91-5.68h3.46v5.97h7.52v4.32h-7.52v14.36c0,1.37.34,2.39,1.02,3.04.68.66,1.56.98,2.66.98h0ZM178.51,329.34c0,2.18-1.48,3.28-4.43,3.28-.64,0-1.23-.07-1.76-.22v-2.02c.52.14,1.12.21,1.79.21.52,0,.94-.08,1.24-.24.31-.16.46-.46.46-.91,0-.84-.87-1.38-2.6-1.62l1.22-2.45h2.21l-.6,1.3c.78.21,1.38.54,1.82,1.01s.65,1.03.65,1.68v-.02Z"/>
  <path class="cls-1" d="M187.91,288.79c0-1.02.28-1.8.82-2.35.55-.55,1.33-.82,2.35-.82s1.76.28,2.31.82c.55.55.82,1.33.82,2.35s-.27,1.73-.82,2.29-1.32.84-2.31.84-1.8-.28-2.35-.84-.82-1.32-.82-2.29ZM193.86,322.72h-5.61v-26.83h5.61v26.83Z"/>
  <path class="cls-1" d="M218.41,322.72l-1.12-3.74h-.19c-1.27,1.63-2.56,2.75-3.85,3.34-1.29.59-2.95.89-4.97.89-2.6,0-4.62-.71-6.08-2.13s-2.19-3.44-2.19-6.04c0-2.77,1.01-4.85,3.03-6.26s5.1-2.18,9.24-2.3l4.56-.15v-1.43c0-1.71-.39-3-1.18-3.85s-2.01-1.27-3.67-1.27c-1.35,0-2.65.2-3.89.61-1.24.41-2.44.88-3.58,1.43l-1.82-4.08c1.43-.76,3-1.34,4.71-1.73,1.7-.4,3.31-.59,4.82-.59,3.36,0,5.9.74,7.61,2.23,1.71,1.49,2.57,3.83,2.57,7.01v18.07h-4.01.01ZM210.05,318.84c2.04,0,3.67-.58,4.91-1.73,1.23-1.16,1.85-2.78,1.85-4.86v-2.33l-3.39.15c-2.64.1-4.57.55-5.77,1.35-1.2.8-1.8,2.03-1.8,3.68,0,1.2.35,2.12,1.05,2.78.7.65,1.75.98,3.15.98v-.02Z"/>
  <path class="cls-1" d="M239.14,332.62c-1.56,0-2.87-.2-3.92-.61v-4.88c1.34.34,2.5.51,3.49.51,3.12,0,4.68-2,4.68-6.02v-34.38h5.73v34.18c0,3.62-.85,6.39-2.54,8.31-1.7,1.92-4.18,2.87-7.44,2.87v.02Z"/>
  <path class="cls-1" d="M276.22,322.72l-.79-3.52h-.29c-.78,1.25-1.89,2.22-3.33,2.94-1.44.71-3.09,1.07-4.93,1.07-3.2,0-5.59-.81-7.17-2.43s-2.36-4.07-2.36-7.35v-17.54h5.66v16.55c0,2.05.41,3.59,1.24,4.62s2.13,1.54,3.89,1.54c2.36,0,4.09-.72,5.2-2.15,1.11-1.43,1.66-3.83,1.66-7.19v-13.37h5.64v26.83h-4.42Z"/>
  <path class="cls-1" d="M297.55,323.22c-3.3,0-5.87-1.21-7.72-3.64-1.85-2.43-2.77-5.83-2.77-10.21s.94-7.82,2.81-10.27c1.87-2.45,4.46-3.68,7.77-3.68s6.11,1.3,7.93,3.91h.29c-.27-1.92-.41-3.44-.41-4.56v-9.78h5.64v37.75h-4.39l-.98-3.52h-.26c-1.8,2.67-4.44,4-7.91,4h0ZM299.05,318.6c2.31,0,3.99-.66,5.04-1.98,1.05-1.32,1.59-3.46,1.62-6.42v-.8c0-3.38-.54-5.78-1.62-7.2s-2.78-2.14-5.09-2.14c-1.97,0-3.5.81-4.56,2.44-1.07,1.63-1.6,3.94-1.6,6.95s.52,5.24,1.55,6.8c1.04,1.56,2.59,2.34,4.66,2.34h0Z"/>
  <path class="cls-1" d="M330.65,323.22c-4.11,0-7.32-1.22-9.64-3.65s-3.48-5.79-3.48-10.05,1.08-7.83,3.22-10.33c2.15-2.51,5.1-3.76,8.86-3.76,3.49,0,6.24,1.08,8.26,3.23,2.02,2.15,3.03,5.11,3.03,8.88v3.08h-17.6c.08,2.6.77,4.61,2.08,6,1.31,1.4,3.14,2.1,5.52,2.1,1.56,0,3.01-.15,4.36-.45,1.35-.3,2.79-.8,4.33-1.49v4.63c-1.37.66-2.75,1.13-4.16,1.41-1.4.28-3,.41-4.8.41h.02ZM329.62,299.73c-1.78,0-3.21.57-4.29,1.72-1.08,1.15-1.72,2.82-1.92,5.02h11.99c-.03-2.22-.56-3.89-1.58-5.03-1.02-1.14-2.42-1.71-4.2-1.71h0Z"/>
  <path class="cls-1" d="M357.14,318.6c1.37,0,2.74-.22,4.11-.65v4.29c-.62.28-1.42.5-2.4.69-.98.19-1.99.28-3.05.28-5.32,0-7.98-2.85-7.98-8.54v-14.46h-3.61v-2.52l3.87-2.09,1.91-5.68h3.46v5.97h7.52v4.32h-7.52v14.36c0,1.37.34,2.39,1.01,3.04.68.66,1.56.98,2.66.98h.02ZM357.49,329.34c0,2.18-1.48,3.28-4.43,3.28-.64,0-1.23-.07-1.76-.22v-2.02c.52.14,1.12.21,1.79.21.52,0,.94-.08,1.24-.24.31-.16.46-.46.46-.91,0-.84-.87-1.38-2.6-1.62l1.22-2.45h2.21l-.6,1.3c.78.21,1.38.54,1.82,1.01s.65,1.03.65,1.68v-.02Z"/>
  <path class="cls-1" d="M378.06,323.22c-4.11,0-7.32-1.22-9.64-3.65s-3.47-5.79-3.47-10.05,1.07-7.83,3.22-10.33c2.15-2.51,5.1-3.76,8.86-3.76,3.49,0,6.24,1.08,8.26,3.23,2.02,2.15,3.03,5.11,3.03,8.88v3.08h-17.6c.08,2.6.77,4.61,2.08,6,1.31,1.4,3.14,2.1,5.52,2.1,1.56,0,3.01-.15,4.36-.45,1.34-.3,2.79-.8,4.34-1.49v4.63c-1.37.66-2.76,1.13-4.16,1.41s-3,.41-4.8.41h0ZM377.04,299.73c-1.78,0-3.21.57-4.29,1.72-1.07,1.15-1.72,2.82-1.92,5.02h11.99c-.03-2.22-.56-3.89-1.58-5.03-1.02-1.14-2.42-1.71-4.2-1.71h0Z"/>
  <path class="cls-1" d="M411.24,322.72l-1.12-3.74h-.19c-1.27,1.63-2.56,2.75-3.85,3.34s-2.95.89-4.97.89c-2.6,0-4.62-.71-6.08-2.13s-2.19-3.44-2.19-6.04c0-2.77,1.01-4.85,3.03-6.26s5.1-2.18,9.24-2.3l4.56-.15v-1.43c0-1.71-.39-3-1.18-3.85-.79-.85-2.01-1.27-3.67-1.27-1.35,0-2.65.2-3.89.61-1.24.41-2.44.88-3.58,1.43l-1.82-4.08c1.43-.76,3-1.34,4.71-1.73,1.7-.4,3.31-.59,4.83-.59,3.36,0,5.9.74,7.61,2.23,1.71,1.49,2.57,3.83,2.57,7.01v18.07h-4.01,0ZM402.88,318.84c2.04,0,3.67-.58,4.91-1.73,1.23-1.16,1.85-2.78,1.85-4.86v-2.33l-3.39.15c-2.64.1-4.57.55-5.77,1.35-1.2.8-1.8,2.03-1.8,3.68,0,1.2.35,2.12,1.05,2.78.7.65,1.75.98,3.15.98v-.02Z"/>
  <path class="cls-1" d="M446.33,322.72h-5.64v-16.5c0-2.07-.41-3.61-1.23-4.63-.82-1.02-2.12-1.53-3.91-1.53-2.37,0-4.11.71-5.21,2.14-1.1,1.42-1.65,3.81-1.65,7.16v13.37h-5.61v-26.83h4.39l.79,3.52h.29c.8-1.28,1.93-2.26,3.39-2.96,1.46-.7,3.09-1.04,4.87-1.04,6.34,0,9.51,3.28,9.51,9.82v17.49h0Z"/>
  <path class="cls-1" d="M470.67,322.72l-1.12-3.74h-.19c-1.27,1.63-2.56,2.75-3.85,3.34s-2.95.89-4.97.89c-2.6,0-4.62-.71-6.08-2.13s-2.19-3.44-2.19-6.04c0-2.77,1.01-4.85,3.03-6.26s5.1-2.18,9.24-2.3l4.56-.15v-1.43c0-1.71-.39-3-1.18-3.85-.79-.85-2.01-1.27-3.67-1.27-1.35,0-2.65.2-3.89.61-1.24.41-2.44.88-3.58,1.43l-1.82-4.08c1.43-.76,3-1.34,4.71-1.73,1.7-.4,3.31-.59,4.83-.59,3.36,0,5.9.74,7.61,2.23,1.71,1.49,2.57,3.83,2.57,7.01v18.07h-4.01,0ZM464.44,292.62c-2.5,0-4.47-.64-5.91-1.93-1.44-1.29-2.23-3.09-2.35-5.42h3.27c.08.78.29,1.4.64,1.86s.85.79,1.49.98c.64.19,1.63.29,2.95.29,1.67,0,2.91-.27,3.71-.8s1.26-1.31,1.37-2.33h3.34c-.19,2.28-1.05,4.08-2.58,5.39-1.53,1.31-3.51,1.97-5.95,1.97h.02ZM462.31,318.84c2.04,0,3.67-.58,4.91-1.73,1.23-1.16,1.85-2.78,1.85-4.86v-2.33l-3.39.15c-2.64.1-4.57.55-5.77,1.35-1.2.8-1.8,2.03-1.8,3.68,0,1.2.35,2.12,1.05,2.78.7.65,1.75.98,3.15.98v-.02Z"/>
  <path class="cls-1" d="M508.63,323.22c-3.34,0-5.94-1.22-7.79-3.66h-.33c.22,2.26.33,3.64.33,4.12v10.99h-5.61v-38.77h4.54c.13.5.39,1.7.79,3.59h.29c1.75-2.72,4.38-4.08,7.88-4.08,3.3,0,5.86,1.21,7.7,3.64,1.84,2.43,2.76,5.83,2.76,10.21s-.94,7.8-2.81,10.26c-1.87,2.46-4.46,3.69-7.75,3.69h0ZM507.26,300.07c-2.23,0-3.86.66-4.88,1.99-1.03,1.33-1.54,3.45-1.54,6.36v.85c0,3.27.51,5.63,1.53,7.1,1.02,1.46,2.68,2.2,4.99,2.2,1.94,0,3.44-.81,4.49-2.43s1.58-3.92,1.58-6.91-.52-5.28-1.56-6.83c-1.04-1.54-2.58-2.32-4.6-2.32h-.01Z"/>
  <path class="cls-1" d="M537.23,323.22c-4.11,0-7.32-1.22-9.64-3.65s-3.47-5.79-3.47-10.05,1.07-7.83,3.22-10.33c2.15-2.51,5.1-3.76,8.86-3.76,3.49,0,6.24,1.08,8.26,3.23,2.02,2.15,3.03,5.11,3.03,8.88v3.08h-17.6c.08,2.6.77,4.61,2.08,6,1.31,1.4,3.14,2.1,5.52,2.1,1.56,0,3.01-.15,4.36-.45,1.34-.3,2.79-.8,4.34-1.49v4.63c-1.37.66-2.76,1.13-4.16,1.41-1.4.28-3,.41-4.8.41h0ZM536.21,299.73c-1.78,0-3.21.57-4.29,1.72-1.07,1.15-1.72,2.82-1.92,5.02h11.99c-.03-2.22-.56-3.89-1.58-5.03-1.02-1.14-2.42-1.71-4.2-1.71Z"/>
  <path class="cls-1" d="M577.13,322.72h-5.64v-16.5c0-2.07-.41-3.61-1.23-4.63-.82-1.02-2.12-1.53-3.91-1.53-2.37,0-4.11.71-5.21,2.14-1.1,1.42-1.65,3.81-1.65,7.16v13.37h-5.61v-26.83h4.39l.79,3.52h.29c.8-1.28,1.93-2.26,3.39-2.96,1.46-.7,3.09-1.04,4.87-1.04,6.34,0,9.51,3.28,9.51,9.82v17.49h.01Z"/>
  <path class="cls-1" d="M594.78,318.6c1.37,0,2.74-.22,4.11-.65v4.29c-.62.28-1.42.5-2.4.69-.98.19-1.99.28-3.05.28-5.32,0-7.98-2.85-7.98-8.54v-14.46h-3.61v-2.52l3.87-2.09,1.91-5.68h3.46v5.97h7.52v4.32h-7.52v14.36c0,1.37.34,2.39,1.01,3.04.68.66,1.56.98,2.66.98h.02Z"/>
  <path class="cls-1" d="M617.57,295.41c1.13,0,2.06.08,2.79.24l-.55,5.31c-.8-.19-1.62-.29-2.48-.29-2.25,0-4.06.74-5.46,2.23-1.39,1.49-2.09,3.42-2.09,5.8v14.02h-5.61v-26.83h4.39l.74,4.73h.29c.88-1.6,2.02-2.87,3.43-3.81s2.93-1.41,4.55-1.41h0Z"/>
  <path class="cls-1" d="M643.89,322.72l-.79-3.52h-.29c-.78,1.25-1.89,2.22-3.33,2.94-1.44.71-3.09,1.07-4.93,1.07-3.2,0-5.59-.81-7.17-2.43-1.58-1.62-2.36-4.07-2.36-7.35v-17.54h5.66v16.55c0,2.05.41,3.59,1.24,4.62s2.13,1.54,3.89,1.54c2.36,0,4.09-.72,5.2-2.15s1.66-3.83,1.66-7.19v-13.37h5.64v26.83h-4.42Z"/>
  <path class="cls-1" d="M198.17,382.35h-5.71v-30.49h-10.27v-4.97h26.25v4.97h-10.27v30.49h0Z"/>
  <path class="cls-1" d="M212.86,348.4c0-1.02.28-1.8.82-2.35.55-.55,1.33-.82,2.35-.82s1.76.28,2.31.82c.55.55.82,1.33.82,2.35s-.27,1.73-.82,2.29c-.55.56-1.32.84-2.31.84s-1.8-.28-2.35-.84-.82-1.32-.82-2.29ZM218.81,382.35h-5.61v-26.83h5.61v26.83Z"/>
  <path class="cls-1" d="M250.07,382.35h-5.64v-16.5c0-2.07-.41-3.61-1.23-4.63s-2.12-1.53-3.91-1.53c-2.37,0-4.11.71-5.21,2.14-1.1,1.42-1.65,3.81-1.65,7.16v13.37h-5.61v-26.83h4.4l.79,3.52h.29c.8-1.28,1.93-2.26,3.39-2.96,1.46-.7,3.09-1.04,4.87-1.04,6.34,0,9.51,3.28,9.51,9.82v17.49h0Z"/>
  <path class="cls-1" d="M269.42,382.83c-4.11,0-7.32-1.22-9.64-3.65-2.32-2.43-3.48-5.79-3.48-10.05s1.08-7.83,3.22-10.33c2.15-2.51,5.1-3.76,8.86-3.76,3.49,0,6.24,1.08,8.26,3.23,2.02,2.15,3.03,5.11,3.03,8.88v3.08h-17.6c.08,2.6.77,4.61,2.08,6,1.31,1.4,3.14,2.1,5.52,2.1,1.56,0,3.01-.15,4.36-.45,1.35-.3,2.79-.8,4.34-1.49v4.63c-1.37.66-2.75,1.13-4.16,1.41-1.4.28-3,.41-4.8.41h.01ZM268.39,359.36c-1.78,0-3.21.57-4.29,1.72-1.08,1.15-1.72,2.82-1.92,5.02h11.99c-.03-2.22-.56-3.89-1.58-5.03s-2.42-1.71-4.2-1.71h0Z"/>
  <path class="cls-1" d="M299.47,355.03c1.13,0,2.06.08,2.79.24l-.55,5.31c-.8-.19-1.62-.29-2.48-.29-2.25,0-4.06.74-5.46,2.23-1.39,1.49-2.09,3.42-2.09,5.8v14.02h-5.61v-26.83h4.4l.74,4.73h.29c.88-1.6,2.02-2.87,3.43-3.81s2.93-1.41,4.55-1.41h-.01Z"/>
  <path class="cls-1" d="M318.7,382.83c-4.11,0-7.32-1.22-9.64-3.65-2.32-2.43-3.48-5.79-3.48-10.05s1.08-7.83,3.22-10.33c2.15-2.51,5.1-3.76,8.86-3.76,3.49,0,6.24,1.08,8.26,3.23,2.02,2.15,3.03,5.11,3.03,8.88v3.08h-17.6c.08,2.6.77,4.61,2.08,6,1.31,1.4,3.14,2.1,5.52,2.1,1.56,0,3.01-.15,4.36-.45,1.35-.3,2.79-.8,4.34-1.49v4.63c-1.37.66-2.75,1.13-4.16,1.41-1.4.28-3,.41-4.8.41h.01ZM317.67,359.36c-1.78,0-3.21.57-4.29,1.72-1.08,1.15-1.72,2.82-1.92,5.02h11.99c-.03-2.22-.56-3.89-1.58-5.03s-2.42-1.71-4.2-1.71h0Z"/>
  <path class="cls-1" d="M345.19,378.23c1.37,0,2.74-.22,4.11-.65v4.29c-.62.28-1.42.5-2.4.69-.98.19-1.99.28-3.05.28-5.32,0-7.98-2.85-7.98-8.54v-14.46h-3.61v-2.52l3.87-2.09,1.91-5.68h3.46v5.97h7.52v4.32h-7.52v14.36c0,1.37.34,2.39,1.01,3.04.68.66,1.57.98,2.66.98h.02Z"/>
  <path class="cls-1" d="M379.94,382.35h-5.71v-30.49h-10.27v-4.97h26.25v4.97h-10.27v30.49h0Z"/>
  <path class="cls-1" d="M394.63,348.4c0-1.02.27-1.8.82-2.35s1.33-.82,2.35-.82,1.75.28,2.31.82c.55.55.82,1.33.82,2.35s-.27,1.73-.82,2.29c-.55.56-1.32.84-2.31.84s-1.8-.28-2.35-.84c-.55-.56-.82-1.32-.82-2.29ZM400.58,382.35h-5.61v-26.83h5.61v26.83Z"/>
  <path class="cls-1" d="M430.86,382.35h-5.64v-16.54c0-2.05-.38-3.59-1.15-4.6-.76-1.01-1.96-1.52-3.58-1.52-2.17,0-3.75.72-4.76,2.15-1.01,1.43-1.52,3.81-1.52,7.14v13.37h-5.61v-26.83h4.39l.79,3.52h.29c.73-1.28,1.8-2.26,3.19-2.96s2.93-1.04,4.6-1.04c4.06,0,6.75,1.41,8.07,4.22h.38c.78-1.33,1.88-2.36,3.3-3.11,1.42-.74,3.04-1.12,4.87-1.12,3.15,0,5.45.81,6.89,2.43s2.16,4.08,2.16,7.4v17.49h-5.61v-16.54c0-2.05-.39-3.59-1.16-4.6-.77-1.01-1.97-1.52-3.6-1.52-2.18,0-3.78.69-4.79,2.07s-1.52,3.51-1.52,6.37v14.22h0Z"/>
  <path class="cls-1" d="M455.04,348.4c0-1.02.27-1.8.82-2.35s1.33-.82,2.35-.82,1.75.28,2.31.82c.55.55.82,1.33.82,2.35s-.27,1.73-.82,2.29c-.55.56-1.32.84-2.31.84s-1.8-.28-2.35-.84c-.55-.56-.82-1.32-.82-2.29ZM460.99,382.35h-5.61v-26.83h5.61v26.83Z"/>
  <path class="cls-1" d="M486.76,374.7c0,2.62-.94,4.63-2.82,6.03s-4.57,2.1-8.07,2.1-6.35-.54-8.48-1.63v-4.93c3.11,1.46,6,2.18,8.67,2.18,3.46,0,5.18-1.06,5.18-3.18,0-.68-.19-1.24-.57-1.7-.38-.45-1.01-.92-1.89-1.41s-2.09-1.03-3.65-1.65c-3.04-1.2-5.1-2.39-6.17-3.59-1.08-1.2-1.61-2.75-1.61-4.66,0-2.3.91-4.08,2.73-5.35,1.82-1.27,4.3-1.9,7.44-1.9s6.04.64,8.81,1.92l-1.82,4.29c-2.85-1.2-5.25-1.8-7.19-1.8-2.96,0-4.44.86-4.44,2.57,0,.84.39,1.55,1.16,2.13.77.58,2.46,1.38,5.05,2.4,2.18.86,3.77,1.64,4.75,2.35.99.71,1.72,1.53,2.2,2.46s.72,2.04.72,3.33v.04ZM479.14,388.5c0,2.18-1.48,3.28-4.43,3.28-.64,0-1.23-.07-1.76-.22v-2.02c.52.14,1.12.21,1.79.21.52,0,.94-.08,1.24-.24.31-.16.46-.46.46-.91,0-.84-.87-1.38-2.6-1.62l1.22-2.45h2.21l-.6,1.3c.78.21,1.38.54,1.82,1.01.44.47.65,1.03.65,1.68v-.02Z"/>
</svg>