<svg xmlns="http://www.w3.org/2000/svg" width="416" height="541" viewBox="0 0 416 541" fill="none"><g clip-path="url(#clip0_405_4191)"><path d="M415.994 428.887C415.994 442.897 413.593 456.907 408.251 469.894C399.668 490.879 386.343 507.715 368.216 520.281C354.11 530.082 338.625 536.516 321.578 539.041C297.149 542.709 273.98 538.741 252.252 527.136C233.044 516.854 218.039 502.003 207.415 482.882C198.711 467.189 193.849 450.413 193.429 432.435C193.309 426.843 193.129 421.251 193.129 415.599V4.14568C193.129 3.84504 193.129 3.5444 193.129 3.24376V0.598145H195.17C195.71 0.658272 196.25 0.598145 196.791 0.598145H217.799H280.042V516.193C287.125 517.936 295.108 519.319 302.671 519.5C324.579 519.981 344.267 513.307 361.313 499.417C379.44 484.626 390.544 465.565 394.206 442.356C394.926 437.606 395.166 432.796 395.226 427.925C395.226 400.267 395.226 372.608 395.226 344.889V0.658271H415.994" fill="#AA9985"></path><path d="M40.251 270.391C40.251 180.56 40.251 90.7294 40.251 0.898715C40.251 0.778459 40.371 0.658203 40.4911 0.658203C69.3621 0.658203 98.2931 0.658203 127.164 0.658203C127.164 173.465 127.164 346.272 127.164 519.079C147.992 519.139 168.82 519.079 189.708 519.079C192.889 519.079 192.889 519.079 192.949 522.266C192.949 528.338 192.829 534.411 193.129 540.484C178.003 540.364 162.818 540.424 147.692 540.424C113.119 540.424 78.4855 540.424 43.9124 540.424C40.371 540.424 40.371 540.424 40.371 536.877C40.251 448.008 40.251 359.199 40.251 270.391Z" fill="#AA9985"></path><path d="M29.5871 329.062C28.1226 329.062 27.3621 329.881 27.3621 331.489V332.392H31.5023V335.213H27.4748V347.345H23.9543V335.213H21.4758V332.392H23.9543V331.432C23.9543 328.272 25.8413 326.213 29.3336 326.213C30.5447 326.213 31.7276 326.467 32.5162 327.031L31.5304 329.683C30.9953 329.316 30.3194 329.062 29.5871 329.062Z" fill="#AA9985"></path><path d="M12.0821 347.542C7.4632 347.542 4.0835 344.326 4.0835 339.812C4.0835 335.297 7.4632 332.109 12.0821 332.109C16.7574 332.109 20.1089 335.297 20.1089 339.812C20.1089 344.326 16.7574 347.542 12.0821 347.542ZM12.0821 344.523C14.6451 344.523 16.5602 342.689 16.5602 339.812C16.5602 336.934 14.6451 335.1 12.0821 335.1C9.54735 335.1 7.63218 336.934 7.63218 339.812C7.63218 342.689 9.54735 344.523 12.0821 344.523Z" fill="#AA9985"></path><path d="M16.6664 361.893C17.0092 361.893 17.5234 361.928 17.9348 361.962V376.351C20.6087 375.836 22.3228 373.604 22.3228 370.41C22.3228 368.35 21.6714 366.736 20.3345 365.431L22.9741 363.13C24.9281 364.778 25.9566 367.354 25.9566 370.513C25.9566 376.66 22.0142 380.644 16.5636 380.644C11.1129 380.644 7.20483 376.626 7.20483 371.165C7.20483 365.808 10.9415 361.893 16.6664 361.893ZM10.6329 371.165C10.6329 373.947 12.4156 375.973 15.0895 376.385V365.98C12.4498 366.323 10.6329 368.35 10.6329 371.165Z" fill="#AA9985"></path><path d="M25.9566 391.14C25.9566 394.196 25.0653 397.253 23.8997 398.901L20.643 397.253C21.7057 395.639 22.4599 393.166 22.4599 390.865C22.4599 388.152 21.7057 387.019 20.4373 387.019C16.9406 387.019 20.2316 398.351 12.9298 398.351C9.46738 398.351 7.20483 395.226 7.20483 390.281C7.20483 387.843 7.78761 385.061 8.78176 383.413L12.0385 385.062C11.01 386.813 10.6672 388.564 10.6672 390.316C10.6672 392.926 11.5242 394.162 12.7241 394.162C16.4264 394.162 13.1355 382.829 20.3002 382.829C23.7283 382.829 25.9566 385.989 25.9566 391.14Z" fill="#AA9985"></path><path d="M7.4104 406.719V402.427H25.7165V406.513H23.3854C25.0651 407.887 25.9564 410.05 25.9564 412.42C25.9564 417.125 23.3854 420.318 17.8661 420.318H7.4104V416.026H17.2833C20.6086 416.026 22.1855 414.446 22.1855 411.733C22.1855 408.745 20.3344 406.719 16.6663 406.719H7.4104Z" fill="#AA9985"></path><path d="M25.9566 434.073C25.9566 439.705 22.0485 443.826 16.5636 443.826C11.0786 443.826 7.20483 439.705 7.20483 434.073C7.20483 428.372 11.0786 424.286 16.5636 424.286C22.0485 424.286 25.9566 428.372 25.9566 434.073ZM22.2885 434.073C22.2885 430.948 20.0602 428.613 16.5636 428.613C13.0669 428.613 10.8386 430.948 10.8386 434.073C10.8386 437.164 13.0669 439.499 16.5636 439.499C20.0602 439.499 22.2885 437.164 22.2885 434.073Z" fill="#AA9985"></path><path d="M7.2048 455.586C7.2048 451.19 9.70731 447.928 15.2266 447.928H25.7166V452.221H15.7751C12.5184 452.221 10.9414 453.835 10.9414 456.582C10.9414 459.638 12.7926 461.699 16.4607 461.699H25.7166V465.991H0.280029V461.699H9.53591C8.02754 460.291 7.2048 458.127 7.2048 455.586Z" fill="#AA9985"></path><path d="M16.6664 479.605C17.0092 479.605 17.5234 479.639 17.9348 479.674V494.062C20.6087 493.547 22.3228 491.315 22.3228 488.121C22.3228 486.061 21.6714 484.447 20.3345 483.142L22.9741 480.841C24.9281 482.489 25.9566 485.065 25.9566 488.224C25.9566 494.371 22.0142 498.355 16.5636 498.355C11.1129 498.355 7.20483 494.337 7.20483 488.877C7.20483 483.52 10.9415 479.605 16.6664 479.605ZM10.6329 488.877C10.6329 491.659 12.4156 493.685 15.0895 494.097V483.691C12.4498 484.035 10.6329 486.061 10.6329 488.877Z" fill="#AA9985"></path><path d="M7.2048 510.115C7.2048 505.72 9.70731 502.457 15.2266 502.457H25.7166V506.75H15.7751C12.5184 506.75 10.9414 508.364 10.9414 511.111C10.9414 514.167 12.7926 516.228 16.4607 516.228H25.7166V520.521H0.280029V516.228H9.53591C8.02754 514.82 7.2048 512.656 7.2048 510.115Z" fill="#AA9985"></path><path d="M21.6713 525.253L24.7223 524.052C25.5451 525.082 25.9564 526.627 25.9564 528.172C25.9564 532.19 23.831 534.491 19.7859 534.491H10.9756V537.513H7.54752V534.491H3.36523V530.199H7.54752V525.288H10.9756V530.199H19.683C21.4656 530.199 22.4255 529.306 22.4255 527.657C22.4255 526.764 22.1855 525.906 21.6713 525.253Z" fill="#AA9985"></path><path d="M217.799 0.658203H196.791C196.25 0.658203 195.71 0.718331 195.17 0.658203H217.799Z" fill="url(#paint0_linear_405_4191)"></path></g><defs><linearGradient id="paint0_linear_405_4191" x1="195.043" y1="-7.00489" x2="210.654" y2="3.36546" gradientUnits="userSpaceOnUse"><stop offset="0.033708" stop-color="#A7A9AC"></stop><stop offset="0.2325" stop-color="#B6B8BA"></stop><stop offset="0.382" stop-color="#C4C6C8"></stop><stop offset="0.5744" stop-color="#B5B7BA"></stop><stop offset="0.7191" stop-color="#A7A9AC"></stop><stop offset="1" stop-color="#A7A9AC"></stop></linearGradient><clipPath id="clip0_405_4191"><rect width="416" height="541" fill="white"></rect></clipPath></defs></svg>